<svg width="320" height="480" fill="none" xmlns="http://www.w3.org/2000/svg"><mask id="a" fill="#fff"><path fill-rule="evenodd" clip-rule="evenodd" d="M0 42.676V468c0 6.627 5.373 12 12 12h296c6.627 0 12-5.373 12-12V12c0-6.627-5.373-12-12-12H42.676l-.054.054L38.676 4H308a8 8 0 018 8v456a8 8 0 01-8 8H12a8 8 0 01-8-8V38.676l-4 4zM33.02 4H12a8 8 0 00-8 8v21.02l-4 4V12C0 5.373 5.373 0 12 0h25.02l-4 4z"/></mask><path d="M0 42.676l-2.828-2.828L-4 41.019v1.657h4zM42.676 0v-4H41.02l-1.171 1.172L42.676 0zm-4 4l-2.828-2.828L29.019 8h9.657V4zM4 38.676h4V29.02l-6.828 6.829L4 38.676zM33.02 4v4h1.656l1.172-1.172L33.019 4zM4 33.02l2.828 2.828L8 34.676V33.02H4zm-4 4h-4v9.656l6.828-6.828L0 37.019zM37.02 0l2.828 2.828L46.676-4H37.02v4zM-4 42.676V468h8V42.676h-8zM-4 468c0 8.837 7.163 16 16 16v-8a8 8 0 01-8-8h-8zm16 16h296v-8H12v8zm296 0c8.837 0 16-7.163 16-16h-8a8 8 0 01-8 8v8zm16-16V12h-8v456h8zm0-456c0-8.837-7.163-16-16-16v8a8 8 0 018 8h8zM308-4H42.676v8H308v-8zM39.848-2.828l-.054.053 5.657 5.657.054-.054-5.657-5.656zm-.054.053l-3.946 3.947 5.657 5.656 3.946-3.946-5.657-5.657zM308 0H38.676v8H308V0zm12 12c0-6.627-5.373-12-12-12v8a4 4 0 014 4h8zm0 456V12h-8v456h8zm-12 12c6.627 0 12-5.373 12-12h-8a4 4 0 01-4 4v8zm-296 0h296v-8H12v8zM0 468c0 6.627 5.373 12 12 12v-8a4 4 0 01-4-4H0zM0 38.676V468h8V38.676H0zm1.172-2.828l-4 4 5.656 5.657 4-4-5.656-5.657zM33.019 0H12v8h21.02V0zM12 0C5.373 0 0 5.373 0 12h8a4 4 0 014-4V0zM0 12v21.02h8V12H0zm2.828 27.848l4-4-5.656-5.657-4 4 5.656 5.657zM-4 12v25.02h8V12h-8zM12-4C3.163-4-4 3.163-4 12h8a8 8 0 018-8v-8zm25.02 0H12v8h25.02v-8zM35.847 6.828l4-4-5.657-5.656-4 4 5.657 5.656z" fill="#E52E7A" mask="url(#a)"/><mask id="c" maskUnits="userSpaceOnUse" x="0" y="0" width="320" height="480"><mask id="b" fill="#fff"><path fill-rule="evenodd" clip-rule="evenodd" d="M0 42.676V468c0 6.627 5.373 12 12 12h296c6.627 0 12-5.373 12-12V12c0-6.627-5.373-12-12-12H42.676l-.054.054L38.676 4H308a8 8 0 018 8v456a8 8 0 01-8 8H12a8 8 0 01-8-8V38.676l-4 4zM33.02 4H12a8 8 0 00-8 8v21.02l-4 4V12C0 5.373 5.373 0 12 0h25.02l-4 4z"/></mask><path fill-rule="evenodd" clip-rule="evenodd" d="M0 42.676V468c0 6.627 5.373 12 12 12h296c6.627 0 12-5.373 12-12V12c0-6.627-5.373-12-12-12H42.676l-.054.054L38.676 4H308a8 8 0 018 8v456a8 8 0 01-8 8H12a8 8 0 01-8-8V38.676l-4 4zM33.02 4H12a8 8 0 00-8 8v21.02l-4 4V12C0 5.373 5.373 0 12 0h25.02l-4 4z" fill="#fff"/><path d="M0 42.676l-2.828-2.828L-4 41.019v1.657h4zM42.676 0v-4H41.02l-1.171 1.172L42.676 0zm-4 4l-2.828-2.828L29.019 8h9.657V4zM4 38.676h4V29.02l-6.828 6.829L4 38.676zM33.02 4v4h1.656l1.172-1.172L33.019 4zM4 33.02l2.828 2.828L8 34.676V33.02H4zm-4 4h-4v9.656l6.828-6.828L0 37.019zM37.02 0l2.828 2.828L46.676-4H37.02v4zM-4 42.676V468h8V42.676h-8zM-4 468c0 8.837 7.163 16 16 16v-8a8 8 0 01-8-8h-8zm16 16h296v-8H12v8zm296 0c8.837 0 16-7.163 16-16h-8a8 8 0 01-8 8v8zm16-16V12h-8v456h8zm0-456c0-8.837-7.163-16-16-16v8a8 8 0 018 8h8zM308-4H42.676v8H308v-8zM39.848-2.828l-.054.053 5.657 5.657.054-.054-5.657-5.656zm-.054.053l-3.946 3.947 5.657 5.656 3.946-3.946-5.657-5.657zM308 0H38.676v8H308V0zm12 12c0-6.627-5.373-12-12-12v8a4 4 0 014 4h8zm0 456V12h-8v456h8zm-12 12c6.627 0 12-5.373 12-12h-8a4 4 0 01-4 4v8zm-296 0h296v-8H12v8zM0 468c0 6.627 5.373 12 12 12v-8a4 4 0 01-4-4H0zM0 38.676V468h8V38.676H0zm1.172-2.828l-4 4 5.656 5.657 4-4-5.656-5.657zM33.019 0H12v8h21.02V0zM12 0C5.373 0 0 5.373 0 12h8a4 4 0 014-4V0zM0 12v21.02h8V12H0zm2.828 27.848l4-4-5.656-5.657-4 4 5.656 5.657zM-4 12v25.02h8V12h-8zM12-4C3.163-4-4 3.163-4 12h8a8 8 0 018-8v-8zm25.02 0H12v8h25.02v-8zM35.847 6.828l4-4-5.657-5.656-4 4 5.657 5.656z" fill="#fff" mask="url(#b)"/></mask></svg>